# xmcd
#
# Track frame offsets:
#	150
#	12615
#	35123
#	55994
#	70462
#	86316
#	99107
#	119177
#	144682
#	177240
#	195871
#
# Disc length: 2893 seconds
#
# Revision: 1
# Processed by: cddbd v1.5.2PL0 Copyright (c) Steve Scherf et al.
# Submitted via: audiograbber 1.83.01
#
DISCID=9b0b4b0b
DTITLE=Orangeshakers - Frisch gepresst...
DYEAR=2011
DGENRE=Blues
TTITLE0=Alright
TTITLE1=Georgy Porgy
TTITLE2=Think twice
TTITLE3=City Man
TTITLE4=Too much water
TTITLE5=You don't know
TTITLE6=Anything you want me to do
TTITLE7=Night owls
TTITLE8=Feel so bad
TTITLE9=Chinatown
TTITLE10=Tulsa time
EXTD=
EXTT0=
EXTT1=
EXTT2=
EXTT3=
EXTT4=
EXTT5=
EXTT6=
EXTT7=
EXTT8=
EXTT9=
EXTT10=
PLAYORDER=
